<svg xmlns="http://www.w3.org/2000/svg" viewBox="0 0 144 80"><defs><style>.a{fill:#231f20;}.b{fill:#7ac143;}.c{fill:#00aeef;}.d{fill:#ec008c;}.e{fill:#f47b20;}</style></defs><title>ESN_CZ_logo_colour</title><path class="a" d="M12.541,60.195v.70972H8V54.66306h4.39844v.70875H8.75977v2.01444h2.83105V58.096H8.75977v2.099Z"/><path class="a" d="M16.72949,56.17583l-.15234.73792a1.25272,1.25272,0,0,0-.59863-.12347,1.13442,1.13442,0,0,0-.59375.175,1.2985,1.2985,0,0,0-.47461.52986,1.82327,1.82327,0,0,0-.18555.85653v2.553h-.75977V56.17583H14.582l.10449.77584a1.51275,1.51275,0,0,1,1.52051-.87111A1.15258,1.15258,0,0,1,16.72949,56.17583Z"/><path class="a" d="M22.27832,60.30875l-.04687.596A1.69141,1.69141,0,0,1,21.66113,61a.95208.95208,0,0,1-.584-.16139A.78735.78735,0,0,1,20.80566,60.3a1.43512,1.43512,0,0,1-.64062.51528A2.20831,2.20831,0,0,1,19.27637,61a1.94335,1.94335,0,0,1-1.15918-.32667,1.08665,1.08665,0,0,1-.45606-.94111,1.17493,1.17493,0,0,1,.47559-.93139,2.88432,2.88432,0,0,1,1.377-.54444l1.26367-.20806v-.26444a1.00089,1.00089,0,0,0-.29394-.75639,1.1274,1.1274,0,0,0-.81738-.28389,1.38744,1.38744,0,0,0-1.3584.89833l-.56055-.40638a1.59231,1.59231,0,0,1,.708-.84195,2.3,2.3,0,0,1,1.21094-.31305,2.12311,2.12311,0,0,1,1.35839.40736,1.44166,1.44166,0,0,1,.51368,1.20069v2.3275a.34616.34616,0,0,0,.085.25472.37911.37911,0,0,0,.27539.08556A1.54086,1.54086,0,0,0,22.27832,60.30875Zm-1.93262-.25569a.85057.85057,0,0,0,.43164-.737v-.65333l-1.06347.1993a2.4995,2.4995,0,0,0-.9502.3257.63728.63728,0,0,0-.31347.54444.51218.51218,0,0,0,.22753.44917,1.11786,1.11786,0,0,0,.63672.15555A1.83534,1.83534,0,0,0,20.3457,60.05306Z"/><path class="a" d="M24.06152,60.72972a1.69273,1.69273,0,0,1-.80761-.79916l.61718-.42584a1.15021,1.15021,0,0,0,.56055.62417,2.00711,2.00711,0,0,0,.94043.20805,1.53138,1.53138,0,0,0,.85547-.19833.58757.58757,0,0,0,.29394-.50167.49787.49787,0,0,0-.27539-.43944,3.0801,3.0801,0,0,0-.96875-.28778,4.9913,4.9913,0,0,1-1.083-.29847,1.30549,1.30549,0,0,1-.57911-.44431A1.16787,1.16787,0,0,1,23.43457,57.5a1.20512,1.20512,0,0,1,.22754-.70972,1.5898,1.5898,0,0,1,.65527-.51528,2.38549,2.38549,0,0,1,.98828-.19444,2.33,2.33,0,0,1,1.22071.28,1.5433,1.5433,0,0,1,.66015.85555l-.6455.3782a1.18743,1.18743,0,0,0-.46094-.65237,1.60372,1.60372,0,0,0-1.5625.00973.583.583,0,0,0-.32324.48222.536.536,0,0,0,.28027.48222,3.11919,3.11919,0,0,0,1.002.29361,3.14357,3.14357,0,0,1,1.39649.48222,1.08874,1.08874,0,0,1,.40918.90806,1.16425,1.16425,0,0,1-.24219.72333,1.583,1.583,0,0,1-.69434.49584A2.80811,2.80811,0,0,1,25.2959,61,2.7709,2.7709,0,0,1,24.06152,60.72972Z"/><path class="a" d="M35.17285,56.275a1.57119,1.57119,0,0,1,.66992.60083,1.84346,1.84346,0,0,1,.25684,1.00236v3.02653h-.76074V57.954a1.21554,1.21554,0,0,0-.3086-.91292,1.12112,1.12112,0,0,0-.81152-.2975,1.34907,1.34907,0,0,0-1.21191.72333,1.73306,1.73306,0,0,0-.19434.84584v2.59194h-.75977V57.954a1.21581,1.21581,0,0,0-.30957-.91292,1.11954,1.11954,0,0,0-.81152-.2975,1.37673,1.37673,0,0,0-.665.175,1.35639,1.35639,0,0,0-.53222.54347,1.83353,1.83353,0,0,0-.209.91681v2.52583h-.75976V56.17583h.665l.04688.73792a1.61822,1.61822,0,0,1,.65137-.62514,1.87528,1.87528,0,0,1,.86914-.20805,2.01209,2.01209,0,0,1,.96386.23722,1.55587,1.55587,0,0,1,.66993.69028,1.42489,1.42489,0,0,1,.68359-.69028,2.158,2.158,0,0,1,.96973-.23722A2.07713,2.07713,0,0,1,35.17285,56.275Z"/><path class="a" d="M41.97754,56.17583v4.72889h-.665l-.04785-.71944A1.80049,1.80049,0,0,1,39.56445,61a1.84857,1.84857,0,0,1-1.25879-.42583,1.64023,1.64023,0,0,1-.48925-1.3057V56.17583h.75976v2.89431a1.37039,1.37039,0,0,0,.28516.979,1.12465,1.12465,0,0,0,.83594.28777,1.43489,1.43489,0,0,0,1.5205-1.58861v-2.5725Z"/><path class="a" d="M44.19727,60.72972a1.69275,1.69275,0,0,1-.80762-.79916l.61719-.42584a1.15015,1.15015,0,0,0,.56054.62417,2.00711,2.00711,0,0,0,.94043.20805,1.53135,1.53135,0,0,0,.85547-.19833.58758.58758,0,0,0,.29395-.50167.49789.49789,0,0,0-.27539-.43944,3.08028,3.08028,0,0,0-.96875-.28778,4.99124,4.99124,0,0,1-1.083-.29847,1.3054,1.3054,0,0,1-.5791-.44431A1.16779,1.16779,0,0,1,43.57031,57.5a1.20512,1.20512,0,0,1,.22754-.70972,1.58989,1.58989,0,0,1,.65528-.51528,2.38542,2.38542,0,0,1,.98828-.19444,2.33,2.33,0,0,1,1.2207.28,1.54331,1.54331,0,0,1,.66016.85555l-.64551.3782a1.18734,1.18734,0,0,0-.46094-.65237,1.60372,1.60372,0,0,0-1.5625.00973.583.583,0,0,0-.32324.48222.536.536,0,0,0,.28027.48222,3.11927,3.11927,0,0,0,1.002.29361,3.14357,3.14357,0,0,1,1.39649.48222A1.08874,1.08874,0,0,1,47.418,59.6a1.16425,1.16425,0,0,1-.24219.72333,1.583,1.583,0,0,1-.69433.49584A2.80821,2.80821,0,0,1,45.43164,61,2.77083,2.77083,0,0,1,44.19727,60.72972Z"/><path class="a" d="M58.47559,55.89194l-.65625.52987a2.02733,2.02733,0,0,0-.67871-.88375,1.93322,1.93322,0,0,0-1.07813-.26056,1.912,1.912,0,0,0-1.13574.2975.90416.90416,0,0,0-.41309.76222.76894.76894,0,0,0,.16113.5007,1.28463,1.28463,0,0,0,.53711.34514,5.57807,5.57807,0,0,0,1.04.26055,3.92,3.92,0,0,1,1.7627.62417,1.39717,1.39717,0,0,1,.51758,1.15305,1.51577,1.51577,0,0,1-.29883.93139,1.92615,1.92615,0,0,1-.85059.62417A3.37407,3.37407,0,0,1,56.10938,61a3.31062,3.31062,0,0,1-1.61915-.36944,2.56937,2.56937,0,0,1-1.02148-.98389l.65527-.52889a1.94421,1.94421,0,0,0,.75586.86528,2.346,2.346,0,0,0,1.249.30722A2.21683,2.21683,0,0,0,57.30664,60.02a.84784.84784,0,0,0,.4375-.76028.75548.75548,0,0,0-.38086-.663,3.94624,3.94624,0,0,0-1.34863-.41611,4.14763,4.14763,0,0,1-1.77637-.62417,1.35453,1.35453,0,0,1-.52246-1.13458,1.63024,1.63024,0,0,1,.28516-.92653,1.95463,1.95463,0,0,1,.8164-.67667,2.86729,2.86729,0,0,1,1.23535-.25083A2.56251,2.56251,0,0,1,58.47559,55.89194Z"/><path class="a" d="M63.11719,60.57417A1.76422,1.76422,0,0,1,61.89258,61a1.40411,1.40411,0,0,1-.94531-.31306,1.212,1.212,0,0,1-.376-.95472v-2.904h-.94922v-.65236h.94922V55.04028l.76074-.20806v1.34361h1.75684v.65236H61.332V59.6a.65726.65726,0,0,0,.19434.51528.74593.74593,0,0,0,.51758.175,1.11173,1.11173,0,0,0,.80761-.35Z"/><path class="a" d="M68.48145,56.17583v4.72889h-.665l-.04786-.71944A1.80047,1.80047,0,0,1,66.06836,61a1.84853,1.84853,0,0,1-1.25879-.42583,1.64023,1.64023,0,0,1-.48926-1.3057V56.17583h.75977v2.89431a1.37039,1.37039,0,0,0,.28515.979,1.12465,1.12465,0,0,0,.83594.28777,1.4349,1.4349,0,0,0,1.52051-1.58861v-2.5725Z"/><path class="a" d="M74.5332,54v6.90472h-.665l-.04785-.8225a1.5844,1.5844,0,0,1-.64062.66695A1.93322,1.93322,0,0,1,72.19629,61a2.01,2.01,0,0,1-1.582-.65819,3.07073,3.07073,0,0,1,0-3.60306,2.01,2.01,0,0,1,1.582-.65819,1.90852,1.90852,0,0,1,.93555.2275,1.67886,1.67886,0,0,1,.6416.60569V54Zm-1.16406,5.86444a1.8848,1.8848,0,0,0,.4043-1.26777v-.11278a1.88483,1.88483,0,0,0-.4043-1.26778,1.35676,1.35676,0,0,0-1.08789-.4725,1.33423,1.33423,0,0,0-1.0918.48611,2.34982,2.34982,0,0,0,0,2.62111,1.3342,1.3342,0,0,0,1.0918.48611A1.35676,1.35676,0,0,0,73.36914,59.86444Z"/><path class="a" d="M80.4043,58.82417H76.82324a1.70275,1.70275,0,0,0,.47949,1.11611,1.47913,1.47913,0,0,0,1.06836.39666,1.87772,1.87772,0,0,0,.86914-.17888.9342.9342,0,0,0,.47071-.52112l.63672.33153a1.96321,1.96321,0,0,1-.76075.76611A2.48339,2.48339,0,0,1,78.37109,61a2.19724,2.19724,0,0,1-1.68554-.65333,2.53151,2.53151,0,0,1-.61328-1.80639,2.61717,2.61717,0,0,1,.584-1.80639,2.10925,2.10925,0,0,1,1.6582-.65333,2.18771,2.18771,0,0,1,1.14942.29361,1.89339,1.89339,0,0,1,.73144.79527,2.50537,2.50537,0,0,1,.24707,1.12487A3.72946,3.72946,0,0,1,80.4043,58.82417Zm-3.10157-1.71209a1.68354,1.68354,0,0,0-.4707,1.04028h2.87891a1.72438,1.72438,0,0,0-.4375-1.03542,1.271,1.271,0,0,0-.959-.37333A1.40094,1.40094,0,0,0,77.30273,57.11208Z"/><path class="a" d="M85.60938,56.54528a1.688,1.688,0,0,1,.52246,1.33291v3.02653h-.76075V58.14361a1.5028,1.5028,0,0,0-.31836-1.06944,1.12275,1.12275,0,0,0-.8496-.33056,1.57054,1.57054,0,0,0-.7129.16528,1.30119,1.30119,0,0,0-.54589.53861,1.8733,1.8733,0,0,0-.21387.94111v2.51611H81.9707V56.17583h.665l.04688.73792a1.48155,1.48155,0,0,1,.65625-.629,2.11255,2.11255,0,0,1,.94043-.20416A1.93086,1.93086,0,0,1,85.60938,56.54528Z"/><path class="a" d="M90.794,60.57417A1.76422,1.76422,0,0,1,89.56934,61a1.40415,1.40415,0,0,1-.94532-.31306,1.212,1.212,0,0,1-.376-.95472v-2.904h-.94922v-.65236h.94922V55.04028l.76074-.20806v1.34361h1.75684v.65236H89.00879V59.6a.65726.65726,0,0,0,.19434.51528.74592.74592,0,0,0,.51757.175,1.11174,1.11174,0,0,0,.80762-.35Z"/><path class="a" d="M101.76563,60.90472h-.94043l-2.62207-4.18055-.665-1.22889h-.00977l.03809,1.00236v4.40708h-.72168V54.66306h.94043l2.6123,4.16111.67481,1.24833h.00878l-.03808-1.00236V54.66306h.72266Z"/><path class="a" d="M107.79,58.82417H104.209a1.70276,1.70276,0,0,0,.4795,1.11611,1.4791,1.4791,0,0,0,1.06836.39666,1.87777,1.87777,0,0,0,.86914-.17888.93422.93422,0,0,0,.4707-.52112l.63672.33153a1.96326,1.96326,0,0,1-.76074.76611A2.48342,2.48342,0,0,1,105.75684,61a2.19727,2.19727,0,0,1-1.68555-.65333,2.53151,2.53151,0,0,1-.61328-1.80639,2.61717,2.61717,0,0,1,.584-1.80639,2.10928,2.10928,0,0,1,1.65821-.65333,2.1877,2.1877,0,0,1,1.14941.29361,1.89332,1.89332,0,0,1,.73144.79527,2.50537,2.50537,0,0,1,.24708,1.12487A3.72948,3.72948,0,0,1,107.79,58.82417Zm-3.10156-1.71209a1.6835,1.6835,0,0,0-.47071,1.04028h2.87891a1.72438,1.72438,0,0,0-.4375-1.03542,1.271,1.271,0,0,0-.959-.37333A1.40092,1.40092,0,0,0,104.68848,57.11208Z"/><path class="a" d="M112.26367,60.57417A1.7642,1.7642,0,0,1,111.03906,61a1.40411,1.40411,0,0,1-.94531-.31306,1.212,1.212,0,0,1-.376-.95472v-2.904h-.94922v-.65236h.94922V55.04028l.76075-.20806v1.34361h1.75683v.65236h-1.75683V59.6a.65729.65729,0,0,0,.19433.51528.746.746,0,0,0,.51758.175,1.11175,1.11175,0,0,0,.80762-.35Z"/><path class="a" d="M120.64355,56.17583l-1.65234,4.72889h-.76074l-1.33887-3.76444-1.26367,3.76444h-.75977l-1.65332-4.72889h.84571l1.19629,3.85,1.292-3.85h.76074l1.292,3.85,1.19629-3.85Z"/><path class="a" d="M125.53711,56.73389a2.97073,2.97073,0,0,1,0,3.61278,2.50222,2.50222,0,0,1-3.37207,0,2.967,2.967,0,0,1,0-3.61278,2.50222,2.50222,0,0,1,3.37207,0Zm-2.81641.48222a2.34718,2.34718,0,0,0,0,2.64833,1.56595,1.56595,0,0,0,2.26075,0,2.35184,2.35184,0,0,0,0-2.64833,1.566,1.566,0,0,0-2.26075,0Z"/><path class="a" d="M130.459,56.17583l-.15234.73792a1.25269,1.25269,0,0,0-.59863-.12347,1.13442,1.13442,0,0,0-.59375.175,1.29857,1.29857,0,0,0-.47461.52986,1.82339,1.82339,0,0,0-.18555.85653v2.553h-.75976V56.17583h.61718l.1045.77584a1.51274,1.51274,0,0,1,1.5205-.87111A1.15258,1.15258,0,0,1,130.459,56.17583Z"/><path class="a" d="M133.48242,58.56847l-1.00683,1.00236v1.33389h-.75977V54h.75977v4.62583l2.46-2.45h.95019l-1.85254,1.84431L136,60.90472h-.92187Z"/><path class="a" d="M77,40.02553v2.97354A1.00047,1.00047,0,0,1,76,44H57a1.00047,1.00047,0,0,1-1-1.00093V13.0096a1.00047,1.00047,0,0,1,.99952-1.00093l18-.00867A1.00046,1.00046,0,0,1,76,13.00093v3.0023a1.00047,1.00047,0,0,1-1,1.00093H61v8.97912H72a1.00047,1.00047,0,0,1,1,1.00092V29.987a1.00047,1.00047,0,0,1-1,1.00093H61V39.0246H76A1.00047,1.00047,0,0,1,77,40.02553Z"/><path class="a" d="M115.99891,44h-2.95965a1.00017,1.00017,0,0,1-1.00005-.999L112,13.00161A1.00018,1.00018,0,0,1,113.00005,12h4.40344a1,1,0,0,1,.87926.52373l12.717,23.47386V13.0003a1.00018,1.00018,0,0,1,1-1.0003H135a1.00018,1.00018,0,0,1,1,1.0003V42.97047a1.00018,1.00018,0,0,1-1,1.0003H130.5828a1,1,0,0,1-.87034-.50762L116.999,20.99308V42.9997A1.00018,1.00018,0,0,1,115.99891,44Z"/><path class="b" d="M31,9V20.76L29.66,24H26.34L25,20.76V9a1,1,0,0,1,1-1h4A1,1,0,0,1,31,9Z"/><path class="c" d="M16.707,12.68792l8.29489,8.07131,1.34348,3.23856-2.34756,2.34756-3.23856-1.34348L12.68792,16.707a1,1,0,0,1,.00959-1.40449l2.605-2.605A1,1,0,0,1,16.707,12.68792Z"/><path class="d" d="M9,25H20.76L24,26.34V29.66L20.76,31H9a1,1,0,0,1-1-1V26A1,1,0,0,1,9,25Z"/><path class="e" d="M12.46846,39.2889l8.29077-8.29077,3.23856-1.34348,2.34756,2.34756-1.34348,3.23856L16.683,43.3354a1,1,0,0,1-1.3797.01436l-2.81006-2.62269A1,1,0,0,1,12.46846,39.2889Z"/><path class="c" d="M25,47V35.24L26.34,32H29.66L31,35.24V47a1,1,0,0,1-1,1H26A1,1,0,0,1,25,47Z"/><path class="b" d="M39.293,43.31208l-8.29489-8.07131-1.34348-3.23856,2.34756-2.34756,3.23856,1.34348L43.31208,39.293a1,1,0,0,1-.00959,1.40449l-2.605,2.605A1,1,0,0,1,39.293,43.31208Z"/><path class="e" d="M47,31H35.24L32,29.66V26.34L35.24,25H47a1,1,0,0,1,1,1v4A1,1,0,0,1,47,31Z"/><path class="d" d="M43.31208,16.707l-8.07131,8.29489-3.23856,1.34348-2.34756-2.34756,1.34348-3.23856L39.293,12.68792a1,1,0,0,1,1.40449.00959l2.605,2.605A1,1,0,0,1,43.31208,16.707Z"/><path class="a" d="M106.085,35.30015a8.32665,8.32665,0,0,1-1.52078,4.92993,9.70543,9.70543,0,0,1-4.26014,3.27A16.077,16.077,0,0,1,94.03972,44.65a15.84865,15.84865,0,0,1-7.96644-1.8999,13.8099,13.8099,0,0,1-3.39954-2.91752,1.00307,1.00307,0,0,1,.15934-1.45729l2.3238-1.74285a1.00634,1.00634,0,0,1,1.41822.227A6.84991,6.84991,0,0,0,88.46018,38.67a10.3418,10.3418,0,0,0,5.67015,1.45007,9.7888,9.7888,0,0,0,5.33771-1.26,3.7557,3.7557,0,0,0,1.85321-3.37,3.29937,3.29937,0,0,0-1.59134-2.88,17.84074,17.84074,0,0,0-6.23408-1.99c-.53381-.1-1.04746-.20007-1.53086-.30993-3.28325-.7201-5.62982-1.67-7.1506-2.90015a7.38325,7.38325,0,0,1-2.679-6.03992,8.891,8.891,0,0,1,1.44025-4.88,9.97738,9.97738,0,0,1,4.08888-3.54,13.76873,13.76873,0,0,1,6.11335-1.3c4.95344,0,9.16013,1.83962,11.69131,5.51057a1.01386,1.01386,0,0,1-.20815,1.39377L102.90284,20.323a1.00584,1.00584,0,0,1-1.4458-.27338,9.11555,9.11555,0,0,0-2.79463-2.65948A8.39164,8.39164,0,0,0,93.81818,16.18,8.35669,8.35669,0,0,0,88.712,17.56016a4.05135,4.05135,0,0,0-1.76248,3.38989,3.38555,3.38555,0,0,0,.66462,2.19006,5.69435,5.69435,0,0,0,2.34669,1.55994,25.07282,25.07282,0,0,0,4.85444,1.26c.55385.1001,1.08766.2,1.59122.32007a16.33064,16.33064,0,0,1,7.03983,2.8999A7.58877,7.58877,0,0,1,106.085,35.30015Z"/><path class="a" d="M63.87842,72.12012a3.40241,3.40241,0,0,1-.01026-6.79639A2.61764,2.61764,0,0,1,66.687,67.14258l-1.50928.60986c-.18994-.81982-.56982-1.07959-1.24951-1.07959-.95947,0-1.52881.69971-1.52881,2.04883,0,1.33936.5293,2.04883,1.499,2.04883a1.19734,1.19734,0,0,0,1.30908-1.0791l1.55908.43945A2.71933,2.71933,0,0,1,63.87842,72.12012Z"/><path class="a" d="M67.36035,70.98047l1.979-2.25879.53955-.52979-.79981.02h-1.709V67.023h4.38769V68.062l-1.96875,2.23877-.54.54981.87989-.02h1.71875V72.02H67.36035Z"/><path class="a" d="M77.54785,70.01123h-3.4082a.95882.95882,0,0,0,1.04931.90918.85149.85149,0,0,0,.91944-.54932l1.37939.43946A2.17664,2.17664,0,0,1,75.189,72.12012a2.3982,2.3982,0,0,1-2.69873-2.59864,2.366,2.366,0,0,1,2.60889-2.59863,2.282,2.282,0,0,1,2.49854,2.52881A3.16926,3.16926,0,0,1,77.54785,70.01123Zm-3.4082-.91943h1.8789c-.08984-.63965-.3999-.9795-.92968-.9795C74.54932,68.1123,74.22949,68.41211,74.13965,69.0918Z"/><path class="a" d="M83.34766,68.47217l-1.57911.51953c-.07031-.57959-.31982-.85938-.77-.85938-.63965,0-.98926.42969-.98926,1.40918,0,.98926.38965,1.36914.98926,1.36914.48,0,.75-.29.82959-.80957l1.52929.48975c-.13965.86963-.94922,1.5293-2.34863,1.5293a2.59966,2.59966,0,1,1-.06983-5.19727C82.55811,66.92285,83.1875,67.6626,83.34766,68.47217Z"/><path class="a" d="M89.26709,68.69189V72.02H87.56836v-2.8584c0-.70947-.29-.94971-.71-.94971-.48926,0-.89942.33985-.89942,1.17969V72.02H84.26025V64.90381H85.959v3.01855a1.6265,1.6265,0,0,1,1.57911-.99951A1.6078,1.6078,0,0,1,89.26709,68.69189Z"/><path class="a" d="M96.1582,69.61133H95.12842V72.02h-1.689V65.42383h3.14844c1.58887,0,2.48877.73926,2.48877,2.09863a1.86359,1.86359,0,0,1-1.2793,1.90918L99.46631,72.02H97.56738Zm-1.02978-1.21924h1.16943c.72949,0,1.04981-.25,1.04981-.83984,0-.57959-.32032-.82911-1.04981-.82911H95.12842Z"/><path class="a" d="M104.95752,70.01123h-3.4082a.95882.95882,0,0,0,1.04931.90918.8515.8515,0,0,0,.91944-.54932l1.37939.43946a2.17664,2.17664,0,0,1-2.29883,1.30957,2.3982,2.3982,0,0,1-2.69873-2.59864,2.366,2.366,0,0,1,2.60889-2.59863,2.282,2.282,0,0,1,2.49853,2.52881A3.17026,3.17026,0,0,1,104.95752,70.01123Zm-3.4082-.91943h1.8789c-.08984-.63965-.3999-.9795-.92968-.9795C101.959,68.1123,101.63916,68.41211,101.54932,69.0918Z"/><path class="a" d="M111.22705,69.50146c0,1.65918-.77978,2.61866-2.05908,2.61866a1.61228,1.61228,0,0,1-1.50928-.92969v2.92822H105.96V67.023h1.48877L107.499,68.082a1.72861,1.72861,0,0,1,1.66895-1.15918C110.46729,66.92285,111.22705,67.87207,111.22705,69.50146Zm-1.70947.02c0-.93945-.35938-1.34912-.93945-1.34912-.56934,0-.91944.43946-.91944,1.29883v.1001c0,.82959.33008,1.29932.91944,1.29932C109.1582,70.87061,109.51758,70.46094,109.51758,69.52148Z"/><path class="a" d="M117.2168,67.023V72.02h-1.51905l-.05029-.92969a1.735,1.735,0,0,1-1.729,1.02979,1.54566,1.54566,0,0,1-1.709-1.75928V67.023h1.69922v2.9082c0,.67969.25.88965.68945.88965.52979,0,.91944-.3501.91944-1.14941V67.023Z"/><path class="a" d="M123.707,69.5415c0,1.62891-.75976,2.57862-2.05908,2.57862a1.7284,1.7284,0,0,1-1.66895-1.15967L119.92871,72.02h-1.48877V64.90381h1.69873v2.94873a1.61149,1.61149,0,0,1,1.50928-.92969C122.92725,66.92285,123.707,67.88232,123.707,69.5415Zm-1.70947-.02c0-.93945-.35938-1.34912-.93945-1.34912-.58936,0-.91944.46973-.91944,1.29883v.1001c0,.85937.3501,1.29932.91944,1.29932C121.63818,70.87061,121.99756,70.46094,121.99756,69.52148Z"/><path class="a" d="M126.39844,70.291c0,.43994.11035.61962.46.61962a1.43953,1.43953,0,0,0,.50976-.08984l-.10986,1.04932a2.18956,2.18956,0,0,1-1.03955.25c-1.06934,0-1.519-.46973-1.519-1.5791V64.90381h1.69873Z"/><path class="a" d="M127.84961,65.6333c0-.56934.2998-.81934.98926-.81934.68994,0,.98974.25.98974.81934,0,.56006-.2998.80957-.98974.80957C128.14941,66.44287,127.84961,66.19336,127.84961,65.6333ZM129.68848,72.02h-1.69873V67.023h1.69873Z"/><path class="a" d="M135.69678,68.47217l-1.5791.51953c-.07032-.57959-.31983-.85938-.77-.85938-.63965,0-.98926.42969-.98926,1.40918,0,.98926.38965,1.36914.98926,1.36914.48,0,.75-.29.82959-.80957l1.52929.48975c-.14013.86963-.94922,1.5293-2.34863,1.5293a2.59966,2.59966,0,1,1-.06982-5.19727C134.90723,66.92285,135.53662,67.6626,135.69678,68.47217Z"/></svg>