<svg xmlns="http://www.w3.org/2000/svg" viewBox="0 0 850.3937 366.8365"><title>ISC_logo</title><polygon points="169.354 72.761 144.734 90.017 161.303 106.825 154.305 89.793 178.754 80.6 169.354 72.761" style="fill:#2e3192"/><path d="M131.60694,235.70171l.47569-1.24368,4.39748-11.48107c5.06681-13.22823,12.287-32.07715,14.93591-39.06429-4.07011-6.07374-14.10947-21.07689-21.0082-31.38588,1.96345,10.44564,4.5407,23.33554,5.172,26.58432-6.86365,10.00209-17.16534,23.1872-17.16534,23.1872l-3.41027,52.10033,26.11958,66.65993s-8.982-79.72008-9.39121-84.0306Z" style="fill:#2e3192"/><path d="M177.5188,155.54905c.07088-1.53086-38.30653-57.3111-38.69454-57.41924.358,1.19692,19.29246,49.17525,19.29246,49.17525l-30.04062-8.48512s27.18351,40.63315,29.68695,44.35324c-.80306,2.25939-14.30822,37.47643-20.37247,53.317.42894,4.51512,9.89761,89.5468,10.54429,93.60376.54585-9.61189,4.61231-80.94039,4.74676-84.80662.04384-1.24515,17.83833-39.73,21.31948-47.50264C174.93863,195.69114,177.13736,163.78645,177.5188,155.54905Z" style="fill:#2e3192"/><path d="M155.549,112.15159c2.46107,3.58272,5.02516,7.33131,7.49281,10.95568,3.75882,5.51986,9.10988,13.42041,13.25964,19.709,1.90864,2.89219,3.39346,5.18738,4.41282,6.82127,1.71573,2.749,2.57651,4.1293,2.48225,6.17458-.19145,4.12419-.82717,14.07732-1.56155,23.59568-1.41832,18.40464-1.94152,19.5716-2.44645,20.6991-.95432,2.13078-2.90534,6.39819-5.3759,11.79967-2.5736,5.628-6.2462,13.65935-9.3956,20.6253,10.50775-11.51542,24.911-27.38665,31.16886-34.25177.04165-1.4629.057-49.89282.0358-51.50479C185.47853,138.0388,168.35922,123.16281,155.549,112.15159Z" style="fill:#2e3192"/><path d="M106.25972,213.46225c-.69418-.02046-23.31727,11.04191-23.49556,11.17052,1.67042,1.707,3.54691,3.21882,5.41171,4.87024,3.42123-1.92325,14.48287-8.14241,16.71083-9.324a57.8652,57.8652,0,0,1,7.67987-2.07963c1.31968-1.51186,3.324-3.63752,4.64372-5.14938C113.34551,213.17362,109.73284,213.28834,106.25972,213.46225Z" style="fill:#2e3192"/><path d="M297.739,151.42852s-30.23281-47.81539-30.78523-48.80186L246.8875,81.986l27.47288,13.27645s36.93643,26.90876,38.19692,27.40127c-.01023-1.50821-19.42473-26.65666-28.15537-38.28534a10.29711,10.29711,0,0,0-.79064-.8871l.06138.00074c-.02484-.01535-.07307-.04239-.1308-.07381-.04384-.04676-.08915-.0928-.133-.1403-.03946,0-.09061-.00146-.13591-.00146-4.64665-2.41356-46.20415-22.55221-46.20415-22.55221s7.99626-1.67407,11.5841-2.32807c2.69636-.491,5.3971-.96017,8.09272-1.45705.45159-.08258,2.22943-.44355,2.22943-.44355s-1.75592-.48228-2.13516-.57289q-9.32764-2.21408-18.65675-4.4267c-12.84824-3.02591-39.44791-9.30864-40.20274-9.54539.42966-.23091,27.77393-10.87092,27.77393-10.87092l-48.50665-.23529L136.901,55.62968s4.39382-7.41535,6.41572-10.99953c2.35219-4.17095,5.50744-9.297,7.85159-13.62866-3.1611,2.05479-30.33219,19.972-30.33219,19.972l1.12385,17.937L83.73674,94.65962,77.49932,114.7113,36.41094,151.3949l21.07688,29.31137s-.50639,23.52334-.39166,26.29057c5.67623,6.84977,19.00748,21.57889,19.2742,21.96617,4.49831,2.82935,16.52888,9.57682,16.52888,9.57682s-13.275-16.336-15.1807-18.62313c-3.099-3.32112-11.7076-13.00462-12.82852-14.26584-.06285-.12861-.12715-.26087-.18707-.38436-.08768-1.45706.50931-11.92024.73438-16.98632l.00657-.011-.00657.011c3.91008-.78041,7.891-1.02958,11.83181-1.57543a5.09021,5.09021,0,0,1,2.62694.6255c5.62,2.244,19.84928,7.959,20.09114,7.93269-.61745-.54585-2.51075-1.78369-3.061-2.15343,5.89106-4.47493,18.28773-16.87525,17.36263-16.55446-1.61123.559-15.91654,9.438-22.63185,13.15-3.8224-2.4428-7.6806-4.83225-11.44746-7.35908a5.54784,5.54784,0,0,0-3.9247-1.0252c-3.27874.36389-6.567.64888-9.85083.966H66.4333c-3.04418-5.28676-11.503-17.8778-11.89539-18.46164C58.437,160.42,67.38616,151.39856,67.87062,150.67149c-1.13261.07746-16.257,2.32369-21.9479,3.17206-.79941.02046,38.60393-37.02266,38.60393-37.02266l13.50955-26.105,33.10308-9.55416,4.54142,3.16767s33.73953-23.05275,34.59813-23.47218C172.5879,63.24232,192.538,80.14167,192.538,80.14167l5.14792,20.73564s-15.975,11.10987-17.20846,11.54538c-.04969.01827,33.21561,3.69963,33.21561,3.69963L249.852,145.29193l-17.42328-36.04714L198.73525,83.2107l37.7826,14.91911ZM67.78294,184.574c-.15565-.26379-.27695-.47424-.37632-.65034C67.49357,184.0705,67.60683,184.26634,67.78294,184.574Z" style="fill:#2e3192"/><path d="M101.81622,122.52343c6.29734-3.99923,21.03158-11.08575,21.03158-11.08575s-22.97018-5.61924-23.47073-5.72812c-1.4797-.32151-1.55058.05115-1.7055,1.06466.39532,3.75736,1.49506,13.766,1.66458,15.05356a.80607.80607,0,0,0,.27621.47278.76255.76255,0,0,1-.27621-.47278l-5.67258,7.2882S97.12719,126.58842,101.81622,122.52343Zm-.882.22433a.20563.20563,0,0,1,.02119.00073A.20563.20563,0,0,0,100.93424,122.74776Zm-1.05882-.25794a1.4642,1.4642,0,0,1-.20533-.14469A1.4897,1.4897,0,0,0,99.87542,122.48982Zm.69053.23529c-.06138-.00877-.11691-.02631-.17537-.04019C100.449,122.6988,100.5053,122.71561,100.566,122.72511Zm-.36536-.08915a1.82756,1.82756,0,0,1-.21044-.09134A1.88456,1.88456,0,0,0,100.20059,122.636Z" style="fill:#2e3192"/><circle cx="196.83561" cy="267.52477" r="16.96452" style="fill:#ec008c"/><circle cx="250.92309" cy="237.78019" r="16.96452" style="fill:#7ac143"/><circle cx="272.42823" cy="178.85605" r="16.96452" style="fill:#00aeef"/><path d="M357.48193,111.10415H349.4128V38.68708h8.06913Z" style="fill:#2e3192"/><path d="M366.58559,111.10415V38.68708h10.24123L393.5864,91.03387V38.68708h7.13866v72.41707h-8.38029l-18.51748-58.555v58.555Z" style="fill:#2e3192"/><path d="M420.173,46.03184H406.82717V38.68708H441.588v7.34476H428.24213v65.07231H420.173Z" style="fill:#2e3192"/><path d="M472.72589,77.9992H455.03483v25.75918H476.76v7.34577H446.9657V38.68708H476.76v7.34476H455.03483V70.7575h17.69106Z" style="fill:#2e3192"/><path d="M512.81189,42.8252q3.87948,4.13862,3.87949,12.41436v5.897a19.15,19.15,0,0,1-2.17312,9.724,11.46687,11.46687,0,0,1-6.82749,5.17264,11.45308,11.45308,0,0,1,6.93155,5.22418,19.7054,19.7054,0,0,1,2.1721,9.88056V102.4137a40.45875,40.45875,0,0,0,.25864,5.01807,9.97834,9.97834,0,0,0,1.19011,3.67238H510.07a14.85977,14.85977,0,0,1-1.03453-3.46628,33.95409,33.95409,0,0,1-.31015-5.32722V90.93082q0-5.89652-2.63785-8.32776-2.63835-2.43073-7.91456-2.43175H492.483v30.93284h-8.06913V38.68708h16.13826Q508.9324,38.68708,512.81189,42.8252ZM506.1905,70.65344q2.53379-2.17161,2.5348-7.759V55.96393q0-4.966-1.966-7.44882-1.96551-2.48378-6.41328-2.48327h-7.863V72.82656h6.00007Q503.65519,72.82656,506.1905,70.65344Z" style="fill:#2e3192"/><path d="M524.86355,111.10415V38.68708h10.24124l16.75958,52.34679V38.68708H559.003v72.41707h-8.3803l-18.51747-58.555v58.555Z" style="fill:#2e3192"/><path d="M572.2448,111.10415H564.796l13.8631-72.41707h11.69l13.86209,72.41707H596.142L593.3486,96.51668H575.03823Zm19.96622-21.518-8.17319-41.7954-7.96507,41.7954Z" style="fill:#2e3192"/><path d="M615.38388,46.03184H602.038V38.68708h34.7608v7.34476H623.453v65.07231h-8.06912Z" style="fill:#2e3192"/><path d="M651.69344,111.10415h-8.06913V38.68708h8.06913Z" style="fill:#2e3192"/><path d="M664.67658,42.8252q4.19015-4.86149,12.36283-4.86249,8.17118,0,12.41436,4.86249,4.24016,4.863,4.24116,13.34483V93.6202q0,8.48485-4.24116,13.34583-4.2432,4.863-12.41436,4.86249-8.06962,0-12.3113-4.86249-4.2432-4.86149-4.24117-13.34583V56.17Q660.48694,47.68971,664.67658,42.8252Zm5.94855,58.96818a7.75206,7.75206,0,0,0,6.41428,2.68938q8.58488,0,8.58639-10.44835V55.75682q0-4.966-2.12058-7.70745-2.1216-2.73989-6.46581-2.7419a7.69231,7.69231,0,0,0-6.41428,2.7419q-2.17313,2.74291-2.17312,7.70745V94.03441Q668.452,99.10351,670.62513,101.79338Z" style="fill:#2e3192"/><path d="M700.93664,111.10415V38.68708h10.24123l16.75959,52.34679V38.68708h7.13865v72.41707h-8.38029l-18.51747-58.555v58.555Z" style="fill:#2e3192"/><path d="M749.04125,111.10415h-7.44881l13.8631-72.41707h11.69l13.86209,72.41707h-8.06913l-2.79343-14.58747H751.83468Zm19.96622-21.518-8.17319-41.7954-7.96507,41.7954Z" style="fill:#2e3192"/><path d="M787.52494,38.68708h8.06913v65.0713h20.69059v7.34577H787.52494Z" style="fill:#2e3192"/><path d="M372.16134,148.29569q4.08558,4.81,4.08659,13.2933v1.966H368.593v-2.38023q0-10.34277-8.27624-10.34529-8.27875,0-8.27623,10.24224a13.74963,13.74963,0,0,0,2.79242,8.742,48.64732,48.64732,0,0,0,8.38029,7.91354q4.44626,3.72492,6.98308,6.31124a23.34542,23.34542,0,0,1,4.34522,6.41429,20.36388,20.36388,0,0,1,1.81043,8.7935q0,8.48334-4.13812,13.2933-4.14013,4.80994-12.20825,4.811-8.06813,0-12.15573-4.811-4.0871-4.81-4.08558-13.2933v-4.13812h7.55186v4.55132q0,4.966,2.12059,7.65593,2.11856,2.69139,6.36276,2.68937,4.24016,0,6.36175-2.68937,2.12007-2.68989,2.12058-7.65593a13.55269,13.55269,0,0,0-2.7409-8.58639,50.91289,50.91289,0,0,0-8.32776-7.96608q-4.24318-3.51579-6.88-6.15565a22.59982,22.59982,0,0,1-4.44828-6.51734,20.67852,20.67852,0,0,1-1.81042-8.845q0-8.58639,4.03406-13.34584,4.03557-4.75691,12.00114-4.75843Q368.07475,143.48472,372.16134,148.29569Z" style="fill:#2e3192"/><path d="M397.20726,151.55385H383.86142v-7.34476h34.7608v7.34476H405.27639v65.07231h-8.06913Z" style="fill:#2e3192"/><path d="M443.72775,210.00477q4.24167,0,6.31123-2.68937,2.06856-2.68989,2.06906-7.759V144.20909h7.55186v54.93312q0,8.58791-4.03506,13.44888-4.03407,4.86451-12.20725,4.86249-8.06964,0-12.1042-4.914-4.03406-4.913-4.03406-13.39736V144.20909h7.96608v55.34733Q435.24541,210.00678,443.72775,210.00477Z" style="fill:#2e3192"/><path d="M499.261,148.916q4.08558,4.70842,4.08659,13.2933V198.729q0,8.48334-4.08659,13.19025-4.08709,4.70843-12.36182,4.70691H469.93246V144.20909h16.96669Q495.17336,144.20909,499.261,148.916Zm-3.87949,50.12316V161.7961q0-10.24275-8.68944-10.24225h-8.69045V209.2804h8.7935Q495.38148,209.2804,495.38148,199.03916Z" style="fill:#2e3192"/><path d="M538.98731,183.52122H521.29624V209.2804h21.72512v7.34576H513.22712V144.20909h29.79424v7.34476H521.29624v24.72566h17.69107Z" style="fill:#2e3192"/><path d="M552.64128,216.62616V144.20909h10.24123l16.75958,52.34679V144.20909h7.13866v72.41707h-8.38029l-18.51748-58.555v58.555Z" style="fill:#2e3192"/><path d="M608.92918,151.55385H595.58334v-7.34476h34.7608v7.34476H616.99831v65.07231h-8.06913Z" style="fill:#2e3192"/><path d="M687.08667,148.34721q4.08558,4.863,4.0866,13.34483v6.51834h-7.65593v-6.93155q0-10.44885-8.48334-10.44935a7.54237,7.54237,0,0,0-6.36175,2.7419q-2.1216,2.74293-2.12159,7.70745v38.27759q0,4.966,2.12159,7.70745a7.539,7.539,0,0,0,6.36175,2.7409q8.48182,0,8.48334-10.44835V190.1416h7.65593v9.00061q0,8.48485-4.0866,13.34583-4.08861,4.863-12.25978,4.86249-8.06811,0-12.15572-4.86249-4.08709-4.86147-4.08558-13.34583V161.692q0-8.48032,4.08558-13.34483,4.08558-4.86147,12.15572-4.86249Q682.99807,143.48472,687.08667,148.34721Z" style="fill:#2e3192"/><path d="M700.79217,144.20909h8.06913V209.2804h20.69059v7.34576H700.79217Z" style="fill:#2e3192"/><path d="M754.34928,210.00477q4.24167,0,6.31123-2.68937,2.06856-2.68989,2.06906-7.759V144.20909h7.55187v54.93312q0,8.58791-4.03507,13.44888-4.03407,4.86451-12.20725,4.86249-8.06964,0-12.1042-4.914-4.03406-4.913-4.03406-13.39736V144.20909h7.96608v55.34733Q745.86694,210.00678,754.34928,210.00477Z" style="fill:#2e3192"/><path d="M808.79543,148.1401q3.72492,3.93254,3.72492,12.1042v3.41375q0,6.00108-1.966,9.46635a10.887,10.887,0,0,1-6.51734,4.914q9.723,2.69139,9.724,15.51794v6.10312q0,8.27877-4.08558,12.62146-4.08861,4.34474-12.46689,4.34523H780.553V144.20909H796.7953Q805.071,144.20909,808.79543,148.1401Zm-6.56885,24.72566q2.32768-2.06855,2.32769-7.55287v-4.24117q0-4.86147-1.86195-7.19018-1.86246-2.32769-6.10413-2.32769h-7.96608v23.381h6.20718Q799.89686,174.93482,802.22658,172.86576Zm1.50027,34.03542q2.067-2.3777,2.069-7.44882v-6.41327q0-5.898-2.38022-8.32877-2.38074-2.42922-7.759-2.43074h-7.0346V209.2804h8.58639Q801.65627,209.2804,803.72685,206.90118Z" style="fill:#2e3192"/><path d="M372.126,253.86922q4.08558,4.863,4.08659,13.34483v6.51834h-7.65592v-6.93155q0-10.44885-8.48335-10.44935a7.54236,7.54236,0,0,0-6.36175,2.74191q-2.12158,2.74292-2.12159,7.70744v38.2776q0,4.966,2.12159,7.70744a7.539,7.539,0,0,0,6.36175,2.7409q8.48184,0,8.48335-10.44834v-9.41483h7.65592v9.00061q0,8.48485-4.08659,13.34583-4.08862,4.863-12.25978,4.86249-8.06812,0-12.15573-4.86249-4.08709-4.86147-4.08558-13.34583V267.21405q0-8.48031,4.08558-13.34483,4.0856-4.86147,12.15573-4.86249Q368.03736,249.00673,372.126,253.86922Z" style="fill:#00aeef"/><path d="M396.75667,257.07586H383.41084v-7.34475h34.76079v7.34475H404.8258v65.07231h-8.06913Z" style="fill:#00aeef"/><path d="M442.76091,315.52678q4.24167,0,6.31123-2.68937,2.06856-2.68989,2.06906-7.759V249.73111h7.55186v54.93311q0,8.58791-4.03506,13.44888-4.03407,4.86452-12.20725,4.86249-8.06964,0-12.1042-4.914-4.03405-4.913-4.03406-13.39736V249.73111h7.96608v55.34733Q434.27857,315.52879,442.76091,315.52678Z" style="fill:#00aeef"/><path d="M496.96965,322.14817h-8.06913V249.73111h8.06913Z" style="fill:#00aeef"/><path d="M506.83809,322.14817V249.73111h10.24123L533.8389,302.0779V249.73111h7.13866v72.41706h-8.38029l-18.51748-58.555v58.555Z" style="fill:#00aeef"/><path d="M599.58305,254.335q3.981,4.60386,3.98254,13.0862v8.69045q0,17.48345-16.86263,17.48294H579.5643v28.55362h-8.06913V249.73111h15.8281Q595.599,249.73111,599.58305,254.335Zm-6.15565,29.74273q2.17161-2.27466,2.17211-7.44882V267.008q0-5.06757-1.965-7.50034-1.967-2.43074-6.31124-2.43175h-7.759v29.277H586.703Q591.25378,286.35284,593.4274,284.07769Z" style="fill:#00aeef"/><path d="M640.78744,253.86922q3.87948,4.13863,3.87948,12.41436v5.897a19.14989,19.14989,0,0,1-2.17312,9.724,11.46685,11.46685,0,0,1-6.82749,5.17265,11.453,11.453,0,0,1,6.93155,5.22417,19.70531,19.70531,0,0,1,2.17211,9.88056v11.27577a40.459,40.459,0,0,0,.25863,5.01807,9.97817,9.97817,0,0,0,1.19012,3.67238h-8.17319a14.85929,14.85929,0,0,1-1.03453-3.46628,33.95252,33.95252,0,0,1-.31016-5.32722V301.97485q0-5.89652-2.63785-8.32776-2.63835-2.43075-7.91455-2.43175h-5.68991v30.93283H612.3894V249.73111h16.13825Q636.908,249.73111,640.78744,253.86922Zm-6.6214,27.82824q2.53379-2.17159,2.5348-7.759V267.008q0-4.966-1.966-7.44881-1.96551-2.48379-6.41327-2.48328h-7.863v26.79472h6.00007Q631.63073,283.87058,634.166,281.69746Z" style="fill:#00aeef"/><path d="M661.66392,322.14817H654.2151l13.8631-72.41706h11.69l13.86209,72.41706h-8.06912l-2.79344-14.58747H664.45735Zm19.96622-21.518-8.17319-41.7954-7.96507,41.7954Z" style="fill:#00aeef"/><path d="M729.19728,253.86922q4.08558,4.863,4.08659,13.34483v6.20718H725.628v-6.62039q0-10.44885-8.48335-10.44935a7.54236,7.54236,0,0,0-6.36175,2.74191q-2.12159,2.74292-2.12159,7.70744v38.2776q0,4.966,2.12159,7.70744a7.539,7.539,0,0,0,6.36175,2.7409q8.48184,0,8.48335-10.44834V290.595h-7.44882v-7.2417h15.10474v21.3109q0,8.48485-4.08659,13.34583-4.08862,4.863-12.25978,4.86249-8.06813,0-12.15573-4.86249-4.0871-4.86147-4.08558-13.34583V267.21405q0-8.48031,4.08558-13.34483,4.08559-4.86147,12.15573-4.86249Q725.10866,249.00673,729.19728,253.86922Z" style="fill:#00aeef"/><path d="M758.83594,315.52678q4.24167,0,6.31124-2.68937,2.06854-2.68989,2.06906-7.759V249.73111h7.55186v54.93311q0,8.58791-4.03507,13.44888-4.03405,4.86452-12.20724,4.86249-8.06964,0-12.1042-4.914-4.03406-4.913-4.03406-13.39736V249.73111h7.96608v55.34733Q750.35361,315.52879,758.83594,315.52678Z" style="fill:#00aeef"/><path d="M810.28257,289.04323H792.59151v25.75918h21.72512v7.34576H784.52238V249.73111h29.79425v7.34475H792.59151v24.72566h17.69106Z" style="fill:#00aeef"/></svg>